<?xml version="1.0" standalone="no"?>
<!DOCTYPE svg PUBLIC "-//W3C//DTD SVG 20010904//EN"
 "http://www.w3.org/TR/2001/REC-SVG-20010904/DTD/svg10.dtd">
<svg version="1.0" xmlns="http://www.w3.org/2000/svg"
 width="256.000000pt" height="256.000000pt" viewBox="0 0 256.000000 256.000000"
 preserveAspectRatio="xMidYMid meet">
<metadata>
Created by potrace 1.11, written by Peter Selinger 2001-2013
</metadata>
<g transform="translate(0.000000,256.000000) scale(0.100000,-0.100000)"
fill="#000000" stroke="none">
<path d="M1085 2384 c-156 -26 -282 -77 -425 -170 -298 -195 -489 -527 -499
-867 l-2 -78 30 -12 c17 -6 33 -18 36 -27 8 -26 8 -94 1 -121 -7 -24 -4 -28
26 -38 23 -8 37 -21 45 -41 6 -16 8 -32 5 -34 -4 -2 -29 -3 -55 -1 -46 3 -48
2 -42 -19 3 -11 7 -30 9 -41 8 -48 115 -254 169 -322 46 -59 204 -208 259
-246 37 -24 65 -47 62 -50 -3 -3 1 -4 8 -4 7 1 49 -16 93 -37 44 -22 85 -41
90 -42 57 -14 75 -15 75 -5 0 7 3 10 8 8 4 -3 8 8 9 24 1 16 -1 29 -5 29 -5 0
-17 7 -28 15 -17 13 -15 13 18 3 21 -6 34 -16 31 -21 -3 -6 -2 -7 4 -4 13 8
96 -17 87 -26 -4 -4 -2 -7 4 -7 7 0 12 5 12 11 0 8 5 8 15 -1 8 -7 15 -9 15
-5 0 4 6 3 13 -1 6 -5 25 -9 40 -8 19 1 26 -3 23 -12 -3 -7 0 -16 7 -20 7 -4
9 -4 5 1 -4 4 2 25 12 46 22 42 25 53 11 45 -5 -3 -15 1 -22 10 -18 22 8 38
28 18 18 -17 35 -18 52 -1 10 10 11 8 5 -8 -7 -17 -6 -18 8 -7 11 9 18 10 23
2 3 -5 11 -10 16 -10 6 0 8 4 4 9 -7 13 34 41 51 34 10 -4 13 0 8 13 -5 18 -5
18 6 1 6 -9 15 -15 21 -12 5 4 6 -2 2 -11 -5 -13 -3 -15 8 -8 21 13 40 14 32
1 -4 -6 0 -8 10 -4 9 3 19 1 23 -5 5 -7 2 -8 -6 -3 -8 5 -11 4 -7 -2 3 -5 0
-10 -8 -10 -8 0 -15 5 -15 11 0 5 -7 1 -15 -10 -15 -19 -15 -19 -8 1 8 25 0
18 -17 -14 -7 -13 -7 -21 -2 -17 6 4 16 -2 22 -11 9 -15 10 -14 4 7 -3 14 -3
22 1 18 5 -4 14 -3 22 3 17 14 17 -2 1 -20 -11 -11 -10 -12 1 -6 10 6 13 4 9
-6 -4 -10 2 -14 18 -14 19 0 21 2 11 10 -13 9 -15 40 -3 52 3 3 1 14 -5 24 -7
15 -6 17 6 13 10 -4 15 0 16 12 0 18 1 17 9 -1 6 -13 9 -15 9 -5 1 13 3 13 10
0 6 -8 7 -18 5 -22 -3 -4 7 -8 21 -8 15 0 24 4 20 10 -4 6 -11 7 -17 4 -7 -4
-8 -2 -4 5 6 9 11 9 23 -1 12 -10 18 -9 29 7 8 10 14 13 14 7 0 -20 16 -13 17
8 1 11 -2 20 -8 20 -5 0 -9 5 -9 11 0 8 4 9 13 0 14 -11 27 -5 27 11 0 5 -5 6
-12 2 -7 -5 -8 -3 -3 5 5 9 12 7 27 -9 11 -12 23 -19 26 -15 4 3 0 11 -8 16
-13 9 -13 10 0 6 8 -2 14 -12 14 -21 -1 -9 2 -16 7 -16 5 0 9 8 9 19 0 25 23
43 63 47 22 3 27 1 18 -5 -8 -5 -19 -7 -25 -5 -7 3 -12 -5 -12 -16 0 -20 12
-28 18 -11 2 5 10 11 18 13 8 2 20 14 25 27 l11 24 12 -27 c6 -14 8 -25 4 -25
-21 4 -33 -4 -45 -27 -9 -17 -17 -23 -21 -15 -9 14 -27 14 -24 0 2 -6 -3 -13
-10 -14 -7 -2 -8 -1 -2 2 5 2 7 9 4 15 -4 6 -12 1 -20 -13 -7 -13 -13 -18 -14
-11 0 6 -5 12 -11 12 -5 0 -8 -4 -4 -9 3 -5 0 -13 -6 -17 -8 -5 -9 -3 -4 6 5
8 4 11 -2 7 -6 -4 -10 -19 -10 -34 l-1 -27 15 28 15 28 26 -24 c26 -22 26 -22
8 0 -17 19 -17 22 -3 22 10 0 17 -4 17 -10 0 -5 5 -10 11 -10 8 0 9 4 0 13
-11 14 -5 27 11 27 5 0 6 -5 2 -12 -4 -7 7 -2 24 11 31 22 44 17 20 -7 -8 -8
-8 -12 -1 -12 13 0 25 28 18 40 -3 5 -1 11 5 15 5 3 10 1 10 -6 0 -8 4 -9 13
0 10 8 17 7 27 -2 10 -9 11 -9 6 0 -4 7 -3 13 3 13 14 0 9 39 -6 45 -11 3 -11
0 -3 -15 16 -31 3 -24 -15 8 -13 22 -15 23 -10 5 4 -15 2 -23 -6 -23 -7 0 -10
3 -6 6 3 4 -1 20 -9 35 -14 28 -14 30 10 41 14 6 23 15 20 20 -3 4 2 11 11 14
18 7 65 -14 65 -29 0 -5 -7 -4 -15 3 -11 9 -15 9 -15 1 0 -6 11 -17 25 -23 14
-6 25 -15 25 -20 0 -5 -5 -6 -12 -2 -7 4 -8 3 -4 -4 4 -7 -1 -10 -14 -7 -13 3
-18 0 -14 -7 5 -7 2 -8 -5 -3 -10 6 -11 3 -1 -15 9 -16 9 -25 1 -33 -6 -6 -11
-16 -11 -21 0 -6 5 -3 11 7 6 9 14 15 20 12 5 -4 6 2 2 12 -6 16 -5 16 10 4
11 -9 17 -10 17 -2 0 6 -5 11 -11 11 -5 0 -8 4 -4 9 5 10 34 8 58 -4 6 -4 3 0
-7 9 -10 8 -23 13 -27 10 -15 -9 -10 11 7 32 8 10 12 13 9 6 -7 -13 20 -41 40
-42 6 0 4 4 -4 9 -17 11 -24 41 -10 41 5 0 9 -7 9 -15 0 -8 4 -15 9 -15 5 0 8
14 6 31 -4 25 -2 29 9 19 11 -8 16 -8 21 0 4 6 13 9 21 6 19 -7 17 4 -3 20
-17 13 -17 14 0 8 9 -3 17 -1 17 5 0 6 -6 10 -12 9 -7 -2 -14 4 -14 12 -3 32
-5 35 -13 21 -6 -9 -11 -10 -15 -2 -4 6 -3 11 1 11 5 0 9 10 10 23 2 20 1 20
-13 -5 -14 -26 -10 -63 6 -53 5 3 12 1 15 -5 4 -6 3 -10 -2 -9 -4 1 -11 0 -15
-1 -5 -1 -14 -3 -20 -4 -7 -1 -12 -12 -11 -24 2 -19 -1 -22 -22 -18 -13 3 -24
2 -22 -2 1 -4 -2 -9 -7 -12 -12 -7 -15 40 -4 65 7 16 7 14 3 -7 -3 -16 -1 -28
4 -28 12 0 22 29 14 43 -3 7 -3 9 2 5 10 -9 47 31 39 43 -3 5 0 9 6 9 6 0 8 5
5 10 -6 10 7 14 34 11 7 -2 10 2 6 8 -3 6 0 14 9 17 8 3 12 13 9 22 -4 14 -3
15 5 2 6 -8 8 -19 4 -25 -3 -5 1 -4 10 2 8 7 18 10 21 6 4 -3 7 -1 7 6 0 8 -6
11 -16 7 -10 -4 -14 -2 -11 6 2 7 10 12 16 10 6 -1 11 3 11 9 0 7 10 9 24 5
14 -3 28 -2 31 4 3 6 -1 7 -9 4 -21 -8 -20 4 5 51 26 48 79 174 79 188 0 5
-12 7 -27 3 -50 -11 -73 -13 -73 -7 0 4 11 36 25 70 26 68 26 76 -4 84 -25 6
-33 0 -54 -46 -15 -32 -20 -37 -32 -27 -8 7 -13 16 -10 20 3 5 -5 12 -17 16
-13 3 -42 16 -65 26 -36 17 -42 24 -39 43 4 20 -3 27 -39 42 -43 17 -44 18
-29 41 9 13 16 36 16 51 l1 28 111 -48 c61 -26 114 -44 118 -40 23 22 5 35
-117 85 -128 53 -130 54 -128 84 2 23 -2 32 -17 37 -11 4 -18 11 -14 16 4 6
11 6 19 -1 8 -7 15 -7 19 -1 4 6 18 6 37 1 26 -8 31 -6 38 13 10 24 -3 47 -25
47 -17 0 -18 14 -4 40 10 18 13 18 80 -10 66 -27 70 -28 80 -10 13 24 7 27
-120 81 -79 33 -99 45 -80 47 36 6 59 52 25 52 -9 0 -12 6 -8 16 3 8 12 13 20
10 9 -4 19 6 29 29 13 31 16 34 40 25 36 -14 44 -13 44 8 0 12 -15 25 -40 36
-22 10 -40 24 -40 31 0 8 -9 19 -20 25 -16 9 -18 15 -10 30 9 17 6 22 -24 34
-33 14 -34 16 -29 54 5 38 4 40 -53 78 -37 24 -59 46 -59 58 0 12 -13 24 -40
35 -57 23 -81 38 -73 47 4 4 31 -3 59 -15 60 -24 79 -26 79 -8 0 32 -283 156
-392 172 -23 4 -47 9 -51 12 -20 12 -285 10 -362 -3z m890 -1064 c3 -6 -1 -7
-9 -4 -18 7 -21 14 -7 14 6 0 13 -4 16 -10z m-71 -601 c3 -3 -4 -5 -14 -6 -11
-1 -20 2 -20 7 0 8 25 8 34 -1z m-189 -33 c10 4 15 0 15 -12 0 -16 -2 -17 -10
-4 -5 8 -10 11 -10 6 0 -5 -7 -3 -15 4 -8 7 -15 18 -15 24 0 6 5 3 11 -6 5
-10 16 -15 24 -12z m261 15 c-3 -5 5 -8 19 -7 14 0 25 6 25 11 0 6 5 2 11 -8
14 -25 4 -35 -33 -32 -52 4 -54 5 -38 15 13 9 13 10 0 10 -13 0 -13 1 0 10 19
12 23 12 16 1z m-165 -58 c11 -15 11 -16 0 -6 -7 6 -21 9 -30 6 -14 -4 -14 -3
-1 6 8 6 16 11 16 11 1 0 8 -8 15 -17z m211 0 c-6 -3 -9 -10 -5 -16 5 -8 2 -8
-9 0 -8 7 -18 10 -21 6 -4 -3 -7 -2 -7 4 0 6 12 10 28 10 15 0 21 -2 14 -4z
m-347 -51 c-8 -2 -12 -9 -9 -15 4 -7 3 -8 -2 -4 -5 5 -9 12 -9 15 0 4 -4 12
-8 19 -5 8 -1 8 18 0 17 -8 20 -13 10 -15z m385 2 c0 -2 -7 -4 -15 -4 -8 0
-15 4 -15 10 0 5 7 7 15 4 8 -4 15 -8 15 -10z m-101 -17 c-2 -1 -13 -9 -24
-17 -19 -14 -19 -14 -6 3 7 9 18 17 24 17 6 0 8 -1 6 -3z m-302 -22 c5 -4 2
-5 -6 0 -10 6 -13 4 -9 -7 4 -8 1 -15 -6 -15 -6 0 -12 8 -12 17 0 18 19 21 33
5z m44 -8 c-10 -9 -11 -8 -5 6 3 10 9 15 12 12 3 -3 0 -11 -7 -18z m45 11 c5
-7 3 -8 -6 -3 -9 6 -12 4 -8 -7 4 -8 0 -15 -7 -15 -10 0 -11 5 -4 19 11 21 15
22 25 6z m-318 -23 c-3 -3 -9 2 -12 12 -6 14 -5 15 5 6 7 -7 10 -15 7 -18z
m346 9 c3 -8 2 -12 -4 -9 -6 3 -10 10 -10 16 0 14 7 11 14 -7z m236 6 c0 -5
-2 -10 -4 -10 -3 0 -8 5 -11 10 -3 6 -1 10 4 10 6 0 11 -4 11 -10z m125 -20
c-5 -8 -11 -8 -17 -2 -6 6 -7 16 -3 22 5 8 11 8 17 2 6 -6 7 -16 3 -22z m-335
-5 c-7 -8 -16 -15 -21 -15 -5 0 -1 8 9 18 20 22 31 19 12 -3z m-110 -3 c0 -5
-7 -9 -15 -9 -8 0 -12 4 -9 9 3 4 9 8 15 8 5 0 9 -4 9 -8z m159 -26 c-3 -3
-11 5 -18 17 -13 21 -12 21 5 5 10 -10 16 -20 13 -22z m32 16 c-7 -2 -18 1
-23 6 -8 8 -4 9 13 5 13 -4 18 -8 10 -11z m-144 -8 c-3 -3 -12 -4 -19 -1 -8 3
-5 6 6 6 11 1 17 -2 13 -5z m102 -38 c0 -6 -3 -5 -6 2 -2 6 -8 10 -13 7 -4 -3
-14 3 -21 13 -13 16 -13 16 5 2 18 -14 19 -13 13 5 -7 20 -7 20 8 1 8 -11 15
-25 14 -30z m35 9 c-4 -8 -10 -15 -15 -15 -4 0 -6 7 -3 15 4 8 10 15 15 15 4
0 6 -7 3 -15z m-226 -46 c-3 -8 -7 -3 -11 10 -4 17 -3 21 5 13 5 -5 8 -16 6
-23z m354 9 c-7 -7 -12 -8 -12 -2 0 14 12 26 19 19 2 -3 -1 -11 -7 -17z m-317
3 c3 -5 2 -12 -3 -15 -5 -3 -9 1 -9 9 0 17 3 19 12 6z m-391 -20 c4 -5 -3 -7
-14 -4 -23 6 -26 13 -6 13 8 0 17 -4 20 -9z m650 1 c2 -4 -5 -9 -17 -9 -17 -2
-19 0 -7 7 18 12 18 12 24 2z m-1200 -18 c5 -14 4 -15 -9 -4 -17 14 -19 20 -6
20 5 0 12 -7 15 -16z m583 1 c0 -8 -4 -12 -9 -9 -5 3 -6 10 -3 15 9 13 12 11
12 -6z m573 12 c0 -2 -9 -12 -20 -22 -24 -21 -27 -14 -4 9 15 15 24 20 24 13z
m-1090 -39 c0 -5 4 -7 9 -4 5 3 14 -1 21 -9 9 -10 9 -15 1 -15 -6 0 -11 5 -11
11 0 5 -4 8 -9 4 -5 -3 -12 -1 -16 5 -4 6 -11 8 -16 5 -5 -4 -9 1 -9 9 0 10 6
13 15 10 8 -4 15 -10 15 -16z m590 -8 c-8 -5 -19 -10 -25 -10 -5 0 -3 5 5 10
8 5 20 10 25 10 6 0 3 -5 -5 -10z m-480 -40 c24 -15 7 -18 -20 -3 -14 7 -18
13 -10 13 8 0 22 -4 30 -10z"/>
<path d="M1990 680 c0 -5 5 -10 10 -10 6 0 10 5 10 10 0 6 -4 10 -10 10 -5 0
-10 -4 -10 -10z"/>
<path d="M2356 802 c-3 -5 1 -9 9 -9 8 0 12 4 9 9 -3 4 -7 8 -9 8 -2 0 -6 -4
-9 -8z"/>
<path d="M2290 759 c0 -5 5 -7 10 -4 6 3 10 8 10 11 0 2 -4 4 -10 4 -5 0 -10
-5 -10 -11z"/>
<path d="M2220 678 c0 -4 7 -8 15 -8 8 0 15 4 15 8 0 5 -7 9 -15 9 -8 0 -15
-4 -15 -9z"/>
<path d="M2265 667 c-15 -12 -16 -15 -4 -22 8 -5 11 -5 7 0 -4 4 0 14 10 21
23 18 11 18 -13 1z"/>
<path d="M2154 661 c3 -5 -1 -14 -9 -21 -19 -16 0 -44 24 -35 11 3 9 0 -4 -11
-15 -13 -16 -15 -3 -11 17 6 30 -13 24 -35 -1 -7 -1 -10 1 -6 2 4 10 6 16 4 7
-1 9 -1 5 1 -4 3 4 22 17 44 14 21 25 41 25 44 0 2 -11 12 -25 21 -20 13 -28
14 -40 4 -10 -9 -15 -9 -15 -1 0 6 -5 11 -11 11 -5 0 -8 -4 -5 -9z m70 -14
c17 -12 17 -14 -1 -45 -19 -33 -32 -41 -34 -19 -1 6 -2 17 -4 22 -1 6 -3 15
-4 20 -1 6 -5 4 -10 -4 -5 -7 -14 -10 -20 -6 -9 5 -9 10 0 21 6 7 15 12 19 9
5 -3 11 -1 15 5 8 13 18 13 39 -3z"/>
<path d="M2187 643 c-11 -10 13 -32 29 -26 11 4 12 9 3 19 -13 15 -22 18 -32
7z m23 -13 c0 -5 -2 -10 -4 -10 -3 0 -8 5 -11 10 -3 6 -1 10 4 10 6 0 11 -4
11 -10z"/>
<path d="M2336 662 c-3 -5 1 -9 9 -9 8 0 12 4 9 9 -3 4 -7 8 -9 8 -2 0 -6 -4
-9 -8z"/>
<path d="M2084 576 c-6 -7 -16 -21 -22 -32 -9 -16 -8 -21 3 -21 8 0 12 4 9 9
-7 12 16 39 27 32 5 -3 6 2 3 10 -7 19 -6 19 -20 2z"/>
<path d="M2236 581 c-3 -5 2 -15 12 -22 15 -13 16 -12 4 3 -10 13 -10 17 0 21
9 4 9 6 1 6 -6 1 -14 -3 -17 -8z"/>
<path d="M2233 535 c0 -8 4 -12 9 -9 5 3 6 10 3 15 -9 13 -12 11 -12 -6z"/>
<path d="M1950 524 c8 -8 9 -14 4 -13 -21 6 -53 -12 -47 -27 3 -8 8 -13 11
-10 2 3 14 0 25 -6 16 -8 23 -7 34 8 7 10 13 12 13 5 0 -7 5 -9 12 -5 8 5 5
11 -11 18 -15 6 -21 16 -18 28 4 13 0 18 -15 18 -17 0 -18 -2 -8 -16z m0 -34
c0 -5 -2 -10 -4 -10 -3 0 -8 5 -11 10 -3 6 -1 10 4 10 6 0 11 -4 11 -10z"/>
<path d="M2140 505 c0 -7 30 -13 34 -7 3 4 -4 9 -15 9 -10 1 -19 0 -19 -2z"/>
<path d="M2181 476 c-9 -11 -9 -16 1 -22 7 -4 10 -4 6 1 -4 4 -3 14 3 22 6 7
9 13 6 13 -2 0 -10 -6 -16 -14z"/>
<path d="M2116 462 c-3 -4 4 -9 15 -9 23 -2 25 3 4 10 -8 4 -16 3 -19 -1z"/>
<path d="M1787 423 c-12 -11 -8 -30 6 -30 7 0 14 9 14 19 2 18 -8 24 -20 11z"/>
<path d="M2115 420 c3 -5 8 -10 11 -10 2 0 4 5 4 10 0 6 -5 10 -11 10 -5 0 -7
-4 -4 -10z"/>
<path d="M1840 405 c-7 -9 -8 -15 -2 -15 5 0 12 7 16 15 3 8 4 15 2 15 -2 0
-9 -7 -16 -15z"/>
<path d="M2057 395 c-4 -8 -3 -16 1 -19 4 -3 9 4 9 15 2 23 -3 25 -10 4z"/>
<path d="M1701 383 c-5 -10 -10 -22 -10 -28 -1 -5 -7 -10 -14 -11 -6 0 -20 -4
-30 -9 -21 -9 -8 -29 33 -50 23 -12 27 -12 27 0 0 8 -4 12 -9 9 -16 -10 -38
10 -28 26 7 10 10 11 10 3 0 -7 4 -13 10 -13 5 0 7 8 4 18 -5 14 -3 14 11 -3
16 -19 16 -19 11 8 -3 19 0 27 9 27 23 0 27 18 6 30 -16 8 -22 7 -30 -7z m29
-7 c0 -2 -7 -7 -16 -10 -8 -3 -12 -2 -9 4 6 10 25 14 25 6z m-67 -51 c-3 -9
-8 -14 -10 -11 -3 3 -2 9 2 15 9 16 15 13 8 -4z"/>
<path d="M1923 383 c-7 -3 -13 -9 -13 -15 0 -7 5 -6 14 1 11 9 15 9 19 -1 4
-9 6 -9 6 -1 1 15 -10 22 -26 16z"/>
<path d="M1990 381 c0 -6 4 -13 10 -16 6 -3 7 1 4 9 -7 18 -14 21 -14 7z"/>
<path d="M1956 353 c-6 -14 -5 -15 5 -6 7 7 10 15 7 18 -3 3 -9 -2 -12 -12z"/>
<path d="M1384 333 c-10 -7 -14 -13 -10 -13 5 0 3 -6 -4 -14 -13 -17 -43 -10
-33 8 5 8 3 8 -8 1 -17 -12 -38 -13 -59 -1 -8 4 -6 -1 6 -11 11 -10 20 -26 18
-34 -1 -9 3 -23 8 -30 8 -11 8 -10 4 5 -5 13 -2 17 9 12 9 -3 27 8 46 27 27
28 30 29 24 10 -5 -17 -2 -23 9 -23 9 0 16 5 16 11 0 5 4 7 10 4 6 -3 7 1 4
10 -4 10 -2 15 6 13 7 -2 15 3 17 10 3 6 0 12 -7 12 -6 0 -9 4 -6 8 8 13 -31
9 -50 -5z m19 -10 c-6 -15 -4 -16 9 -5 11 9 18 10 23 2 4 -6 2 -9 -4 -8 -5 2
-16 -5 -23 -15 -13 -17 -14 -16 -12 10 2 31 2 33 9 33 2 0 1 -8 -2 -17z m-59
-32 c5 -1 3 -7 -4 -15 -6 -8 -17 -13 -24 -10 -18 7 -16 32 3 29 9 -2 20 -4 25
-4z"/>
<path d="M1549 346 c0 -1 -2 -13 -4 -27 -4 -33 9 -54 29 -46 17 7 22 27 7 27
-5 0 -8 11 -7 23 2 14 -2 24 -11 24 -7 0 -13 -1 -14 -1z m18 -33 c-4 -3 -2
-12 4 -20 8 -9 8 -13 1 -13 -6 0 -14 5 -17 10 -6 10 2 30 12 30 4 0 3 -3 0 -7z"/>
<path d="M1853 343 c4 -6 1 -14 -5 -16 -10 -4 -10 -6 0 -6 7 -1 10 -6 6 -13
-4 -6 -3 -8 4 -5 12 8 10 32 -3 44 -4 4 -5 3 -2 -4z"/>
<path d="M1899 348 c-6 -21 -5 -38 1 -38 5 0 8 9 7 20 -1 17 -5 26 -8 18z"/>
<path d="M1235 320 c3 -5 8 -10 11 -10 2 0 4 5 4 10 0 6 -5 10 -11 10 -5 0 -7
-4 -4 -10z"/>
<path d="M1760 326 c0 -2 8 -10 18 -17 15 -13 16 -12 3 4 -13 16 -21 21 -21
13z"/>
<path d="M1597 303 c5 -12 7 -12 14 -1 8 12 13 4 10 -15 -1 -5 3 -6 8 -3 5 4
12 0 14 -6 4 -8 6 -9 6 -2 1 14 -25 37 -44 40 -8 1 -11 -4 -8 -13z"/>
<path d="M1750 301 c0 -6 4 -13 10 -16 6 -3 7 1 4 9 -7 18 -14 21 -14 7z"/>
<path d="M1256 275 c-3 -8 0 -17 6 -21 6 -4 8 -3 4 4 -3 5 -1 12 6 14 8 3 9 6
1 11 -6 4 -13 0 -17 -8z"/>
<path d="M1377 249 c12 -12 25 -20 28 -17 3 3 -7 13 -22 23 l-28 17 22 -23z"/>
<path d="M1415 261 c-3 -5 0 -13 6 -17 7 -4 9 -3 5 4 -3 5 0 13 6 15 9 4 10 6
1 6 -6 1 -14 -3 -18 -8z"/>
<path d="M1615 260 c-3 -5 -1 -10 4 -10 6 0 11 5 11 10 0 6 -2 10 -4 10 -3 0
-8 -4 -11 -10z"/>
<path d="M1730 259 c0 -5 5 -7 10 -4 6 3 10 8 10 11 0 2 -4 4 -10 4 -5 0 -10
-5 -10 -11z"/>
<path d="M1136 227 c3 -10 9 -15 12 -12 3 3 0 11 -7 18 -10 9 -11 8 -5 -6z"/>
</g>
</svg>
